<?xml version="1.0" standalone="no"?>
<!DOCTYPE svg PUBLIC "-//W3C//DTD SVG 20010904//EN"
 "http://www.w3.org/TR/2001/REC-SVG-20010904/DTD/svg10.dtd">
<svg version="1.0" xmlns="http://www.w3.org/2000/svg"
 width="4000.000000pt" height="4000.000000pt" viewBox="0 0 4000.000000 4000.000000"
 preserveAspectRatio="xMidYMid meet">

<g transform="translate(0.000000,4000.000000) scale(0.100000,-0.100000)"
fill="#000000" stroke="none">
<path d="M22870 24789 c-36 -5 -99 -15 -140 -22 l-75 -13 34 -17 c19 -9 45
-17 58 -17 13 0 58 -9 101 -19 42 -11 100 -23 127 -26 78 -11 307 -12 335 -2
34 12 435 11 487 -1 30 -7 41 -7 36 1 -4 7 2 8 18 3 60 -17 248 -31 409 -29
249 2 410 8 410 14 0 4 17 7 38 7 254 2 375 1 383 -3 5 -3 44 -8 86 -10 81 -5
127 -9 228 -20 95 -10 166 -12 171 -3 3 4 16 3 30 -3 14 -5 56 -7 92 -4 106 8
227 15 367 21 72 2 138 6 148 8 9 2 17 -1 17 -7 0 -8 3 -8 8 -2 8 11 102 11
272 0 111 -7 135 -9 295 -23 107 -10 329 -8 590 3 135 6 331 7 573 1 28 0 52
-3 52 -6 0 -3 8 -6 18 -7 351 -17 426 -18 662 -7 216 10 505 11 655 2 349 -21
815 -31 815 -17 0 4 13 4 29 -1 16 -4 32 -6 35 -3 9 10 311 10 324 0 8 -6 12
-6 12 1 0 11 133 8 151 -3 5 -4 9 -1 9 5 0 7 10 9 28 6 57 -13 279 -18 957
-22 385 -2 894 -6 1130 -8 237 -2 433 -1 438 1 4 2 55 6 115 8 196 7 347 19
376 31 13 5 17 4 13 -3 -5 -8 4 -8 28 -3 19 4 35 4 35 -1 0 -5 12 -6 28 -4 15
3 70 7 122 10 52 3 115 8 140 10 25 3 68 7 95 9 28 2 70 11 95 20 25 9 53 16
62 16 19 0 90 37 99 52 3 5 9 8 11 6 7 -4 98 61 98 69 0 8 -270 -6 -360 -18
-41 -6 -119 -22 -174 -35 -314 -79 -403 -85 -691 -50 -311 38 -420 41 -745 21
-296 -18 -618 -17 -1105 5 -141 6 -318 6 -540 -2 -258 -9 -378 -8 -550 2 -395
22 -674 24 -949 5 -269 -19 -395 -17 -686 11 -222 21 -502 21 -740 -1 -227
-20 -460 -16 -665 12 -155 21 -587 23 -700 4 -100 -17 -424 -25 -525 -13 -457
55 -477 56 -634 43 -82 -6 -197 -19 -255 -28 -62 -9 -175 -16 -271 -16 -139
-1 -193 3 -340 28 -229 39 -437 41 -670 5 -224 -33 -414 -32 -625 5 -175 30
-391 41 -505 24z"/>
<path d="M16715 24774 c-88 -9 -244 -13 -420 -11 -154 1 -440 0 -635 -2 -426
-6 -779 -6 -1150 -1 -206 3 -317 -1 -443 -13 -193 -20 -479 -22 -652 -5 -194
18 -511 14 -755 -11 -267 -26 -370 -26 -662 0 -261 24 -505 21 -703 -6 -178
-25 -513 -31 -690 -11 -347 38 -519 39 -730 6 -298 -47 -508 -53 -766 -21
-398 49 -486 48 -858 -4 -300 -43 -457 -43 -756 0 -288 41 -438 39 -736 -10
-264 -43 -378 -35 -729 52 -115 28 -172 36 -275 40 -71 3 -128 3 -125 0 7 -7
81 -34 145 -53 83 -24 235 -52 320 -58 239 -18 441 -28 518 -27 22 0 47 -4 58
-10 13 -7 19 -6 19 1 0 6 5 8 11 4 6 -4 33 -7 60 -7 27 0 52 -3 54 -7 3 -5 22
-6 42 -4 70 8 101 9 98 3 -3 -3 45 -5 105 -3 71 1 110 -1 110 -8 0 -7 4 -7 13
0 8 7 48 8 115 4 56 -4 102 -5 102 -2 0 3 9 6 20 6 11 0 20 -5 20 -11 0 -5 5
-3 10 5 5 8 10 11 10 5 0 -8 148 -10 305 -4 17 1 32 0 35 0 7 -3 158 -10 310
-17 224 -9 720 -9 720 0 0 5 6 3 14 -3 11 -9 15 -9 19 1 4 11 6 11 6 0 1 -9 7
-10 19 -4 9 4 31 8 47 7 17 -1 36 3 43 8 8 7 12 5 12 -5 0 -11 8 -14 28 -11
15 2 39 4 55 4 15 -1 27 3 27 8 0 5 9 7 20 4 11 -3 20 -10 20 -17 0 -6 5 -4
11 4 8 11 12 12 16 2 2 -6 10 -9 16 -5 15 10 377 11 377 2 0 -7 51 -3 77 6 6
2 14 1 18 -3 10 -10 373 -17 383 -8 2 3 13 1 24 -5 11 -6 24 -7 31 -2 7 5 67
9 135 8 67 0 122 3 122 8 0 5 9 5 20 2 26 -8 190 -12 190 -4 0 8 62 5 76 -3 5
-4 28 -3 50 3 36 8 155 5 215 -7 14 -3 38 0 53 6 15 5 25 7 23 2 -5 -6 220
-13 383 -11 36 1 120 1 188 1 68 0 122 5 122 10 0 5 6 6 13 1 6 -4 20 -6 30
-5 9 2 17 -2 17 -8 0 -6 8 -9 18 -6 32 10 221 19 295 13 26 -1 47 0 47 3 0 3
74 6 165 5 91 0 165 -3 165 -6 0 -3 21 -3 48 1 26 5 51 5 57 2 5 -3 79 -5 163
-4 114 1 151 -1 146 -10 -5 -7 -3 -8 5 -3 18 11 121 15 121 5 0 -5 12 -6 28
-2 15 4 123 7 239 7 117 0 213 2 213 5 0 3 29 6 65 7 36 0 65 -3 65 -9 0 -5 5
-6 11 -2 16 9 189 13 189 3 0 -4 12 -4 28 0 15 5 36 6 47 4 11 -2 27 -4 35 -4
8 1 44 0 80 0 94 -1 124 -1 130 1 20 7 81 3 84 -5 3 -7 5 -7 5 0 1 11 41 10
231 0 63 -4 120 -7 125 -6 93 5 264 12 275 11 96 -4 130 -4 130 4 0 4 8 5 18
1 22 -9 142 -12 142 -4 0 4 17 4 38 0 41 -7 949 -7 956 0 11 10 646 -4 664
-15 7 -4 12 -2 12 3 0 6 5 11 11 11 5 0 7 -5 3 -11 -4 -8 1 -9 16 -4 38 12 70
13 70 1 0 -8 2 -8 8 0 9 14 71 24 78 12 3 -5 10 -5 16 -1 7 3 32 7 57 8 57 3
122 13 209 33 28 7 42 7 42 0 0 -6 11 -7 28 -3 15 4 32 8 37 10 6 1 17 4 25 8
26 9 45 14 54 15 5 0 12 6 16 13 8 12 49 20 122 22 71 3 81 57 11 57 -21 0
-112 9 -203 20 -192 23 -439 25 -655 4z"/>
<path d="M26544 20125 c-182 -28 -308 -71 -354 -120 l-23 -25 12 -157 c6 -87
14 -201 16 -253 13 -277 43 -318 303 -415 76 -28 97 -50 89 -91 -2 -14 2 -95
9 -180 8 -86 12 -160 9 -164 -2 -4 -33 -13 -67 -20 -123 -24 -235 -109 -252
-191 -2 -14 -22 -46 -42 -70 -20 -24 -43 -58 -50 -76 -17 -39 -18 -121 -3
-160 6 -15 11 -61 11 -100 0 -59 6 -84 29 -134 16 -33 29 -73 29 -87 1 -45 34
-105 83 -147 164 -144 189 -156 279 -129 13 4 18 -4 23 -40 8 -53 21 -66 73
-73 31 -4 44 0 67 19 24 21 28 32 29 85 2 69 19 101 71 133 38 24 65 65 65
102 0 13 -8 44 -17 71 -17 46 -17 48 6 95 40 81 88 205 101 262 17 72 24 86
80 140 37 36 50 57 60 98 18 79 6 154 -33 199 -60 68 -124 79 -208 34 -73 -38
-93 -41 -169 -27 l-65 12 -7 55 c-20 166 -28 254 -28 302 0 50 3 58 34 85 19
17 66 46 103 66 79 42 135 92 166 150 19 36 22 59 24 171 0 72 -7 222 -16 334
-16 185 -20 206 -39 222 -47 37 -238 49 -398 24z m349 -360 c21 -271 21 -299
2 -315 -13 -11 -18 -11 -31 1 -11 11 -17 60 -24 195 -5 98 -13 208 -16 243 -6
56 -5 66 11 78 35 25 42 -3 58 -202z m-165 183 c12 -15 40 -339 38 -443 -1
-68 -2 -70 -26 -70 -24 0 -25 3 -32 90 -23 298 -27 409 -17 422 14 16 24 17
37 1z m-134 -16 c7 -12 26 -235 32 -380 5 -115 3 -133 -10 -138 -32 -12 -44
14 -51 119 -4 56 -7 118 -7 137 1 19 -3 82 -8 139 -7 75 -7 108 1 118 13 14
35 17 43 5z m-138 -24 c10 -16 32 -282 33 -404 1 -77 -2 -103 -12 -107 -20 -7
-33 4 -40 34 -9 38 -30 458 -23 475 7 17 32 19 42 2z m-132 -25 c2 -10 9 -88
15 -173 23 -334 23 -336 -15 -328 -23 4 -31 51 -39 223 -2 66 -8 155 -11 197
-3 42 -3 82 1 87 10 17 43 13 49 -6z m771 -1214 c52 -46 62 -90 35 -161 -25
-66 -59 -98 -106 -98 -52 0 -84 20 -114 74 -25 42 -30 47 -36 31 -11 -29 36
-105 86 -139 l43 -29 -6 -68 c-6 -75 -26 -149 -39 -149 -20 0 -31 50 -20 89
41 134 -18 201 -204 231 -38 6 -80 6 -122 0 -61 -10 -147 -39 -139 -46 2 -3
50 1 106 7 212 23 342 -35 326 -146 -9 -61 -22 -69 -90 -55 -72 15 -207 15
-268 -1 -83 -20 -64 -30 45 -23 175 11 297 -18 326 -78 11 -23 9 -34 -12 -82
-14 -31 -29 -56 -33 -56 -196 -4 -283 -9 -303 -18 -14 -6 -23 -11 -20 -11 3
-1 66 -2 140 -4 101 -2 145 -7 174 -20 38 -17 39 -18 34 -62 -3 -25 -12 -52
-19 -62 -24 -28 -95 -53 -166 -59 -98 -8 -120 -13 -102 -25 12 -8 11 -12 -6
-25 -35 -26 -65 -28 -93 -5 -15 11 -50 35 -78 52 -68 42 -96 86 -102 157 -2
31 -10 64 -18 72 -7 9 -23 38 -35 65 -18 40 -20 59 -15 111 4 34 2 65 -2 68
-5 3 -15 25 -21 48 -16 55 -5 84 54 150 32 36 47 62 52 92 15 97 144 160 333
160 91 1 111 -2 149 -22 l43 -24 32 31 c72 69 135 79 191 30z"/>
<path d="M12025 19984 c-16 -2 -65 -9 -109 -15 -170 -23 -263 -70 -252 -127 3
-15 13 -108 21 -207 27 -308 40 -368 92 -426 44 -49 79 -67 225 -119 62 -22
116 -44 119 -48 10 -10 43 -358 36 -377 -4 -9 -19 -15 -40 -15 -40 0 -128 -25
-177 -50 -52 -27 -99 -77 -110 -119 -5 -21 -22 -48 -36 -62 -53 -48 -84 -109
-84 -163 1 -28 7 -62 15 -76 8 -14 15 -53 15 -90 0 -53 6 -75 31 -120 16 -30
35 -75 40 -100 16 -73 52 -113 166 -186 109 -69 162 -86 213 -66 23 9 26 7 35
-32 13 -51 43 -69 105 -62 61 6 80 31 80 107 0 64 -4 58 88 135 35 31 42 42
42 73 0 20 -7 49 -15 65 -20 38 -20 36 24 129 39 80 58 135 82 227 8 34 24 57
66 96 69 64 90 124 69 204 -31 120 -147 165 -268 104 -48 -24 -58 -26 -131
-19 -44 3 -85 9 -92 12 -8 2 -16 32 -20 76 -3 40 -13 116 -21 169 -23 146 -16
157 132 229 148 70 194 132 194 260 0 30 -9 157 -22 283 -26 268 -24 265 -125
291 -66 17 -316 29 -388 19z m243 -177 c10 -12 52 -371 52 -445 0 -37 -23 -53
-45 -31 -9 9 -21 93 -36 242 -19 195 -20 230 -8 238 19 12 25 11 37 -4z m156
-9 c3 -13 14 -117 25 -232 15 -154 18 -213 10 -223 -14 -15 -35 -17 -44 -3 -9
14 -53 452 -47 468 8 22 51 14 56 -10z m-298 1 c14 -23 53 -463 42 -476 -16
-20 -37 -15 -47 10 -13 30 -52 442 -45 462 7 18 40 20 50 4z m-149 -11 c6 -7
20 -116 33 -242 19 -191 20 -230 9 -237 -42 -26 -48 -5 -73 237 -12 126 -21
235 -18 242 2 6 12 12 22 12 10 0 22 -6 27 -12z m-143 -15 c6 -21 46 -405 46
-444 0 -31 -27 -46 -46 -27 -13 12 -54 358 -54 448 0 36 3 40 24 40 15 0 27
-7 30 -17z m841 -1164 c41 -36 55 -79 43 -132 -12 -55 -35 -84 -74 -97 -66
-22 -127 8 -163 78 -15 29 -31 28 -31 -1 0 -30 60 -101 101 -117 l32 -14 -6
-75 c-2 -42 -11 -92 -19 -111 l-14 -35 -18 27 c-16 25 -17 30 -1 80 16 49 16
57 2 90 -43 103 -287 148 -464 85 -53 -18 -38 -24 35 -14 107 15 258 4 315
-23 57 -27 82 -66 73 -115 -10 -50 -25 -58 -92 -46 -75 14 -209 14 -276 0 -98
-20 -78 -30 47 -23 188 10 312 -16 337 -71 13 -29 -13 -110 -40 -124 -10 -5
-84 -11 -167 -13 -207 -6 -239 -26 -39 -24 156 1 216 -10 233 -42 13 -24 -9
-82 -39 -103 -34 -25 -133 -49 -202 -49 -53 0 -84 -12 -56 -23 9 -3 7 -9 -7
-20 -40 -31 -65 -30 -125 7 -32 20 -61 36 -66 36 -14 0 -74 51 -86 73 -6 12
-15 46 -19 76 -5 36 -16 62 -33 80 -34 35 -46 72 -46 137 0 35 -7 69 -20 94
-33 65 -23 105 45 170 41 39 65 79 65 108 0 30 62 78 122 96 146 42 288 43
381 4 l48 -21 32 31 c64 62 136 69 192 21z"/>
<path d="M27201 19223 l-114 -4 7 -92 c8 -117 35 -199 98 -292 60 -90 138
-162 228 -209 126 -67 141 -69 588 -73 312 -4 406 -2 418 8 20 16 13 132 -14
216 -67 212 -260 396 -459 438 -66 14 -402 17 -752 8z"/>
<path d="M12654 19109 c-3 -6 -3 -33 1 -62 24 -192 148 -374 315 -461 145 -76
149 -77 589 -86 217 -5 400 -6 408 -3 32 12 7 144 -49 261 -30 64 -57 101
-111 156 -129 130 -230 173 -441 186 -223 14 -705 20 -712 9z"/>
<path d="M27540 18454 c-185 -49 -337 -182 -426 -371 -40 -86 -56 -153 -52
-219 l3 -49 175 -6 c330 -12 620 -10 692 5 71 16 171 61 228 104 99 75 201
214 240 328 24 68 43 186 34 208 -5 14 -55 16 -423 15 -332 0 -427 -3 -471
-15z"/>
<path d="M13139 18415 c-137 -27 -281 -117 -364 -228 -75 -99 -110 -183 -121
-292 l-6 -62 246 -7 c285 -9 543 0 635 20 159 36 314 161 390 315 40 83 71
208 59 241 -5 12 -34 16 -144 21 -228 11 -622 7 -695 -8z"/>
<path d="M13005 17423 c-58 -15 -115 -91 -115 -154 0 -46 27 -94 76 -138 88
-78 217 -83 304 -12 l25 21 -35 -10 c-113 -32 -260 14 -317 99 -32 48 -30 87
8 122 58 54 138 30 234 -70 53 -55 105 -53 105 5 0 80 54 71 172 -29 26 -22
48 -43 48 -47 0 -4 -24 -23 -54 -43 -117 -77 -235 -229 -276 -353 -45 -135
-13 -286 78 -366 58 -50 194 -110 265 -115 162 -13 334 140 352 312 l6 50 -19
-47 c-30 -73 -58 -112 -120 -170 -77 -70 -141 -101 -217 -105 -48 -2 -53 -1
-25 6 104 22 233 127 283 231 71 145 51 288 -47 334 -181 86 -449 -199 -410
-435 6 -32 9 -59 7 -59 -1 0 -12 19 -24 41 -72 142 3 391 169 562 32 32 69 67
84 78 l28 20 58 -34 c80 -47 126 -61 202 -61 138 0 238 101 192 193 -25 52
-61 66 -167 66 -81 0 -157 -16 -248 -51 -7 -2 -56 27 -108 66 -134 100 -190
106 -229 25 l-22 -46 -45 41 c-72 67 -145 91 -218 73z m990 -157 c27 -12 35
-21 35 -41 0 -57 -91 -103 -180 -91 -24 3 -74 20 -110 37 l-65 31 35 16 c58
26 183 61 218 61 18 1 48 -6 67 -13z m-318 -371 c105 -73 -28 -402 -189 -470
-59 -24 -85 -20 -108 17 -61 101 -14 267 112 389 75 73 141 95 185 64z"/>
<path d="M27393 17359 c-40 -12 -101 -82 -109 -126 -25 -133 102 -273 248
-273 43 0 97 21 121 48 15 16 11 17 -54 14 -117 -6 -227 46 -269 127 -29 58
-26 96 10 133 28 28 35 30 83 25 50 -4 55 -7 128 -87 60 -64 81 -81 96 -76 21
7 43 45 43 74 1 63 52 49 147 -41 40 -38 73 -73 73 -77 0 -5 -21 -21 -47 -36
-67 -39 -191 -168 -236 -245 -55 -93 -88 -207 -90 -305 -2 -77 0 -86 38 -160
30 -59 53 -88 92 -119 119 -93 193 -126 285 -126 148 -1 308 149 325 304 l5
52 -36 -72 c-68 -133 -205 -233 -331 -241 -44 -2 -56 0 -45 7 8 6 23 11 33 11
38 0 131 55 187 109 97 95 147 223 138 354 -3 55 -9 73 -34 104 -89 111 -224
95 -352 -41 -84 -90 -134 -197 -140 -298 -2 -42 0 -90 6 -107 15 -44 6 -38
-19 12 -28 53 -37 176 -19 256 28 126 126 296 222 386 101 96 88 92 155 47 96
-66 122 -75 210 -80 70 -4 88 -1 128 18 116 56 139 191 43 250 -65 40 -222 35
-353 -10 l-55 -19 -68 60 c-37 34 -86 74 -109 90 -78 54 -150 32 -168 -51 l-6
-29 -52 53 c-29 29 -67 60 -84 69 -41 22 -100 28 -140 16z m1040 -220 c35 -16
44 -51 23 -84 -35 -53 -125 -75 -209 -51 -53 15 -142 60 -152 76 -6 10 58 36
150 61 74 20 141 19 188 -2z m-375 -390 c64 -22 79 -120 37 -242 -62 -177
-183 -303 -283 -295 -54 4 -77 54 -77 164 1 70 5 89 32 145 51 104 143 197
221 225 20 7 37 13 38 14 1 0 15 -5 32 -11z"/>
<path d="M25295 17321 c-111 -50 -179 -219 -126 -313 34 -61 154 -79 210 -32
58 48 61 154 5 162 -18 3 -20 -1 -16 -33 7 -62 -32 -135 -73 -135 -54 0 -82
80 -59 168 35 135 116 191 210 146 71 -34 107 -145 85 -261 -20 -100 -33 -127
-106 -206 -83 -91 -88 -108 -44 -153 18 -18 41 -37 51 -40 46 -14 96 60 163
241 20 55 46 110 57 122 52 56 129 55 177 -4 82 -99 92 -286 22 -424 -26 -52
-28 -54 -62 -49 -18 3 -79 5 -134 4 -106 0 -183 -23 -221 -65 -25 -28 -35 -23
-18 9 17 34 18 54 0 95 -17 42 -53 65 -118 77 -200 38 -330 -145 -239 -336 54
-115 162 -177 306 -177 195 1 358 79 489 234 40 48 54 58 83 61 27 2 38 9 44
26 7 20 5 23 -20 28 l-28 6 34 96 c60 168 48 341 -30 444 -61 81 -141 99 -228
51 -27 -14 -49 -30 -49 -35 0 -4 -4 -8 -9 -8 -5 0 -11 21 -14 48 -11 98 -32
138 -103 201 -77 67 -164 86 -239 52z m133 -562 c-21 -38 -58 -70 -58 -51 0 9
69 92 76 92 3 0 -5 -18 -18 -41z m-111 -215 c3 -10 -13 -53 -40 -104 -43 -83
-45 -89 -28 -104 9 -9 31 -18 47 -21 25 -5 36 1 84 47 93 89 185 119 306 99
102 -18 104 -20 59 -81 -139 -190 -453 -280 -582 -167 -45 39 -63 82 -63 147
0 80 47 166 105 190 36 16 105 12 112 -6z"/>
<path d="M10765 17321 c-106 -27 -190 -117 -210 -224 -11 -56 24 -120 76 -141
55 -22 141 -21 188 4 38 19 71 69 71 107 0 30 -29 63 -56 63 -22 0 -24 -4 -24
-45 0 -91 -39 -137 -104 -121 -35 9 -60 68 -53 127 21 172 191 258 298 150 59
-59 76 -170 43 -282 -13 -44 -31 -69 -99 -139 -45 -47 -85 -93 -89 -103 -15
-44 95 -103 143 -78 28 16 92 126 142 249 38 93 46 105 84 128 129 75 255 -36
255 -225 0 -65 -12 -114 -47 -192 l-24 -56 -122 1 c-143 1 -231 -21 -316 -79
l-52 -36 15 30 c39 74 1 138 -95 161 -63 15 -167 6 -224 -19 -56 -25 -111 -89
-130 -153 -14 -47 -14 -58 0 -104 43 -147 207 -237 401 -220 97 9 240 49 323
90 63 32 221 149 221 164 1 23 64 72 98 78 l38 6 0 -57 c-1 -48 3 -60 23 -76
40 -32 122 -18 169 29 l21 21 16 -25 c18 -28 64 -32 108 -9 21 11 33 12 52 3
13 -6 30 -8 37 -6 7 3 30 46 51 96 49 116 88 174 145 218 87 66 92 44 22 -115
-53 -121 -59 -151 -35 -171 31 -25 49 -6 100 107 35 80 63 126 94 157 47 48
96 75 111 60 5 -5 -11 -54 -38 -114 -47 -108 -57 -164 -31 -181 31 -20 60 -21
97 -2 33 16 42 17 58 6 48 -31 157 43 240 163 50 72 38 79 -16 8 -73 -96 -143
-155 -162 -136 -7 7 9 54 55 159 l66 148 -35 3 c-18 2 -41 -1 -51 -6 -22 -13
-122 -239 -123 -278 0 -23 -6 -34 -25 -42 -14 -7 -28 -12 -30 -12 -14 0 -1 51
31 123 53 120 59 144 39 173 -29 45 -79 31 -192 -52 -22 -16 -23 -15 -23 4 0
72 -104 66 -187 -11 -27 -24 -29 -17 -8 23 l16 30 -33 0 c-69 0 -72 -3 -137
-153 -34 -78 -61 -147 -61 -153 0 -15 -48 -36 -55 -24 -6 10 30 105 89 234 20
44 35 80 34 82 -2 1 -25 0 -51 -3 -33 -4 -51 -12 -58 -25 -9 -17 -12 -17 -25
-3 -40 39 -148 3 -214 -72 -49 -56 -50 -67 -5 -59 19 4 35 5 35 3 0 -8 -76
-57 -89 -57 -8 0 -10 7 -6 20 5 16 2 20 -19 20 -35 0 -37 10 -15 59 49 110 63
259 34 358 -51 172 -208 226 -362 123 l-33 -22 0 26 c0 33 -23 90 -57 138 -61
89 -222 154 -318 129z m159 -513 c-27 -47 -66 -97 -79 -101 -26 -11 -17 9 31
62 44 49 63 64 48 39z m884 -190 c4 -37 -87 -228 -123 -256 -58 -46 -94 -19
-73 56 41 149 185 296 196 200z m-1054 -64 c27 -10 18 -48 -29 -120 -56 -87
-57 -100 -5 -114 53 -14 67 -9 123 44 100 96 204 132 356 123 51 -3 98 -10
104 -16 7 -7 -16 -36 -74 -94 -69 -69 -101 -92 -179 -131 -141 -69 -306 -95
-415 -65 -51 14 -100 64 -116 118 -16 52 -2 116 38 173 41 60 144 102 197 82z"/>
<path d="M14848 17293 l-36 -4 -141 -329 c-78 -180 -141 -333 -141 -338 0 -12
-59 -34 -72 -26 -5 3 8 24 28 46 75 83 102 201 55 239 -41 33 -139 22 -204
-24 -16 -11 -42 -38 -58 -60 l-29 -40 0 40 c0 56 -24 76 -95 75 -124 -1 -232
-105 -251 -242 -5 -37 -2 -50 17 -74 21 -27 24 -28 88 -22 36 3 87 6 113 5 27
0 63 7 82 16 28 13 42 15 68 6 22 -7 46 -7 73 -1 22 5 65 10 95 10 30 0 66 7
80 14 17 10 30 11 43 4 31 -16 42 -4 81 91 33 80 46 98 104 152 66 60 142 108
142 90 0 -12 -67 -66 -142 -116 -32 -21 -58 -42 -58 -47 0 -14 40 -91 59 -112
9 -10 29 -25 44 -33 35 -18 78 -6 118 33 l27 26 30 -22 c88 -65 252 -11 252
84 0 17 -8 43 -18 57 -70 105 -82 126 -82 146 0 26 40 47 71 38 25 -8 24 -17
-5 -44 -14 -13 -22 -29 -19 -37 7 -19 39 -27 63 -14 26 14 27 70 2 93 -23 21
-93 22 -132 2 -64 -33 -66 -86 -6 -175 57 -84 61 -100 35 -133 -37 -48 -107
-28 -134 37 -11 25 -11 35 0 56 20 39 27 70 17 70 -6 0 -13 -12 -17 -27 -4
-16 -9 -23 -12 -16 -2 6 3 27 11 47 17 41 10 45 -26 16 -35 -27 -52 -72 -45
-120 4 -33 1 -43 -16 -55 -49 -34 -105 -4 -121 66 -5 21 3 30 64 72 69 46 90
77 76 112 -13 35 -72 12 -165 -65 l-61 -51 19 48 c11 26 56 134 100 238 82
192 87 206 74 203 -5 -1 -24 -3 -45 -5z m-341 -429 c16 -42 -75 -226 -114
-232 -11 -2 -25 -14 -32 -28 -8 -18 -18 -24 -34 -22 -37 5 -34 50 7 119 37 63
45 85 24 73 -18 -11 41 67 66 88 27 22 75 23 83 2z m-319 -47 c5 -61 -76 -217
-114 -217 -8 0 -19 -11 -24 -25 -7 -17 -17 -25 -34 -25 -32 0 -40 27 -26 82
44 160 189 296 198 185z m21 -233 c-6 -8 -28 -14 -47 -14 -35 0 -36 0 -15 15
12 8 32 32 45 52 l23 38 3 -38 c2 -21 -2 -45 -9 -53z"/>
<path d="M29309 17043 c-23 -49 -78 -173 -124 -278 -45 -104 -92 -208 -103
-230 -33 -65 -72 -156 -72 -171 0 -17 -32 -34 -64 -34 -34 0 -33 5 9 51 67 74
108 188 91 254 -12 48 -102 69 -190 44 -41 -11 -131 -88 -141 -120 -11 -33
-20 -21 -20 26 0 59 -27 86 -92 92 -79 8 -131 -12 -189 -71 -68 -70 -99 -135
-99 -208 0 -46 4 -62 23 -80 21 -21 31 -23 148 -24 100 0 133 3 159 16 27 14
37 15 56 4 34 -18 260 -16 295 2 16 9 31 11 38 5 6 -5 21 -11 32 -15 19 -6 26
4 64 96 35 84 53 113 97 156 63 62 168 132 197 132 18 -1 17 -5 -14 -31 -19
-16 -75 -55 -125 -86 -49 -30 -92 -57 -94 -59 -8 -7 43 -117 67 -146 56 -66
116 -72 185 -17 l38 30 29 -24 c42 -36 94 -50 155 -44 67 7 111 29 135 70 30
49 25 77 -29 160 -86 131 -86 186 -3 187 45 0 54 -26 19 -52 -32 -23 -35 -53
-8 -68 35 -18 91 16 91 57 0 14 -13 38 -29 54 -25 24 -37 29 -81 29 -136 0
-178 -89 -99 -211 62 -95 73 -125 58 -161 -23 -56 -94 -60 -143 -9 -43 45 -49
82 -20 142 28 57 26 81 -2 27 -22 -43 -30 -21 -9 28 8 20 13 39 11 41 -13 13
-49 -14 -72 -53 -22 -37 -26 -54 -22 -95 5 -44 2 -52 -20 -69 -55 -43 -104
-14 -141 82 -10 27 -8 29 68 78 87 56 116 89 107 125 -14 54 -76 37 -193 -50
-40 -30 -75 -55 -79 -55 -3 0 4 17 16 37 16 27 152 332 227 511 4 9 -9 12 -45
12 l-51 0 -42 -87z m-335 -379 c28 -11 19 -75 -20 -150 -49 -93 -80 -132 -106
-136 -15 -2 -24 -11 -26 -25 -3 -24 -41 -41 -61 -28 -25 15 -11 83 31 150 31
51 38 69 28 75 -9 6 2 23 42 64 52 54 75 64 112 50z m-350 -10 c25 -10 19 -62
-14 -132 -43 -91 -87 -152 -111 -152 -11 0 -23 -10 -28 -24 -12 -29 -39 -40
-58 -24 -41 34 30 221 112 297 43 40 66 48 99 35z m36 -263 c0 -45 -2 -50 -30
-61 -16 -7 -37 -10 -45 -6 -12 4 -7 17 27 60 24 30 44 55 46 55 1 1 2 -21 2
-48z"/>
<path d="M12639 16871 c-20 -16 -22 -23 -14 -47 14 -39 65 -46 89 -12 20 29
20 34 -4 58 -25 25 -41 25 -71 1z"/>
<path d="M27028 16779 c-21 -12 -24 -69 -6 -87 28 -28 88 0 88 41 0 20 -35 57
-52 57 -7 0 -21 -5 -30 -11z"/>
<path d="M26949 16553 c-59 -126 -79 -180 -79 -213 0 -19 -7 -33 -19 -40 -52
-27 -53 0 -5 117 47 112 55 148 42 184 -8 24 -15 29 -45 29 -41 0 -63 -11
-120 -57 l-43 -34 0 25 c0 29 -31 66 -55 66 -28 0 -79 -27 -104 -54 -34 -36
-44 -33 -27 9 l15 35 -44 0 c-50 0 -45 9 -135 -209 -47 -111 -74 -149 -86
-117 -4 11 38 130 113 314 4 8 -8 12 -41 12 -33 0 -46 -4 -46 -14 0 -24 -20
-29 -35 -10 -16 22 -70 23 -112 1 -46 -24 -134 -120 -121 -132 2 -3 19 0 37 5
33 9 33 9 15 -11 -11 -12 -32 -28 -49 -36 -39 -21 -45 -30 -45 -79 0 -61 29
-94 84 -94 41 0 83 20 100 48 6 11 12 7 27 -17 15 -25 26 -31 52 -31 18 0 42
6 53 14 17 12 22 12 39 0 10 -8 24 -14 31 -14 7 0 32 50 56 111 33 87 54 124
92 166 96 106 144 103 95 -5 -77 -166 -92 -225 -67 -250 29 -29 45 -13 88 91
54 132 72 160 127 202 40 31 93 47 93 28 0 -3 -11 -29 -24 -57 -80 -170 -91
-221 -56 -256 24 -24 48 -25 94 -6 29 12 36 12 48 -1 11 -10 26 -13 54 -7 31
5 54 22 109 78 66 67 127 156 107 156 -5 0 -23 -22 -40 -48 -37 -57 -134 -152
-156 -152 -24 0 -20 24 18 114 51 120 86 208 86 218 0 4 -18 8 -40 8 l-40 0
-41 -87z m-711 14 c4 -20 -61 -184 -95 -240 -33 -53 -83 -69 -97 -31 -17 44
47 196 107 257 41 41 79 47 85 14z"/>
<path d="M18712 15680 c0 -14 2 -19 5 -12 2 6 2 18 0 25 -3 6 -5 1 -5 -13z"/>
<path d="M18733 15255 c0 -22 2 -30 4 -17 2 12 2 30 0 40 -3 9 -5 -1 -4 -23z"/>
<path d="M18752 14820 c0 -19 2 -27 5 -17 2 9 2 25 0 35 -3 9 -5 1 -5 -18z"/>
<path d="M18763 14535 c0 -38 2 -53 4 -32 2 20 2 52 0 70 -2 17 -4 1 -4 -38z"/>
<path d="M18774 14235 c0 -49 1 -71 3 -48 2 23 2 64 0 90 -2 26 -3 8 -3 -42z"/>
<path d="M13388 14103 c7 -3 16 -2 19 1 4 3 -2 6 -13 5 -11 0 -14 -3 -6 -6z"/>
<path d="M13338 14093 c7 -3 16 -2 19 1 4 3 -2 6 -13 5 -11 0 -14 -3 -6 -6z"/>
<path d="M27848 14063 c7 -3 16 -2 19 1 4 3 -2 6 -13 5 -11 0 -14 -3 -6 -6z"/>
<path d="M27788 14053 c7 -3 16 -2 19 1 4 3 -2 6 -13 5 -11 0 -14 -3 -6 -6z"/>
<path d="M13008 14043 c12 -2 30 -2 40 0 9 3 -1 5 -23 4 -22 0 -30 -2 -17 -4z"/>
<path d="M18784 13910 c0 -52 1 -74 3 -47 2 26 2 68 0 95 -2 26 -3 4 -3 -48z"/>
<path d="M18781 13794 c0 -11 3 -14 6 -6 3 7 2 16 -1 19 -3 4 -6 -2 -5 -13z"/>
<path d="M18782 13720 c0 -14 2 -19 5 -12 2 6 2 18 0 25 -3 6 -5 1 -5 -13z"/>
<path d="M18786 13657 c3 -10 9 -15 12 -12 3 3 0 11 -7 18 -10 9 -11 8 -5 -6z"/>
<path d="M18796 13166 c2 -258 6 -472 9 -474 7 -7 4 401 -5 698 -6 182 -7 125
-4 -224z"/>
<path d="M21210 12813 c-22 -22 -25 -23 -31 -6 -6 15 -8 13 -14 -10 -4 -15
-10 -25 -13 -22 -3 3 -11 -4 -17 -16 -10 -18 -13 -19 -18 -5 -4 9 -2 16 3 16
6 0 10 5 10 11 0 6 -6 9 -12 6 -7 -2 -19 3 -25 12 -11 13 -14 14 -22 2 -5 -8
-18 -12 -30 -8 -11 3 -20 2 -19 -2 3 -23 -4 -32 -18 -27 -12 4 -15 2 -11 -9 4
-8 2 -17 -3 -20 -6 -4 -10 1 -10 9 0 17 -37 18 -60 2 -13 -10 -13 -9 -1 7 8
10 9 17 3 17 -6 0 -16 -8 -21 -17 -6 -11 -11 -13 -12 -5 -1 6 -2 16 -3 22 0 5
-8 15 -16 22 -12 11 -12 11 -1 -4 11 -15 11 -18 -2 -18 -8 0 -18 6 -21 13 -3
6 -4 3 -3 -8 1 -11 -2 -20 -8 -20 -35 -3 -55 -18 -56 -43 0 -27 0 -27 -10 -4
-5 13 -6 29 -2 35 3 7 -4 3 -16 -8 -15 -13 -34 -18 -58 -16 -29 2 -35 0 -30
-13 5 -12 0 -16 -16 -16 -17 0 -19 2 -7 10 12 8 12 10 -2 15 -10 4 -29 -2 -47
-14 -35 -25 -40 -26 -58 -3 -13 15 -14 15 -9 0 3 -9 -2 -19 -10 -22 -25 -10
-34 -7 -34 9 0 8 -4 15 -9 15 -5 0 -7 -9 -4 -20 6 -23 -16 -27 -35 -8 -9 9
-15 9 -20 3 -8 -12 -62 -14 -62 -3 0 4 -7 5 -15 2 -9 -4 -15 -1 -15 7 0 8 -8
5 -22 -8 -26 -23 -61 -43 -77 -43 -6 0 -11 10 -12 23 -1 19 -3 17 -15 -10 -8
-18 -19 -33 -25 -33 -5 0 -7 5 -4 10 3 6 3 10 -2 11 -13 1 -37 7 -58 14 -11 3
-8 -1 8 -10 27 -15 36 -35 17 -35 -5 0 -10 5 -10 11 0 7 -9 9 -22 6 -12 -3
-30 -1 -41 4 -15 9 -18 8 -14 -3 2 -7 9 -12 14 -11 5 1 10 -5 10 -12 0 -11 -4
-12 -14 -4 -9 9 -19 7 -38 -5 -14 -9 -23 -21 -20 -26 3 -4 -5 -6 -17 -2 l-22
5 23 9 c14 5 21 14 18 22 -3 8 -1 17 6 20 9 3 8 5 -1 5 -7 1 -16 -9 -20 -20
-8 -20 -9 -20 -25 -4 -9 9 -17 12 -17 7 0 -5 -9 -12 -20 -15 -11 -3 -20 -1
-20 4 0 5 5 9 12 9 6 0 9 2 6 5 -8 9 -59 -6 -53 -15 7 -12 -22 -20 -42 -13
-16 6 -16 5 -5 -10 12 -14 11 -16 -9 -12 -13 3 -27 12 -32 21 -8 14 -10 14
-23 -3 -7 -10 -14 -13 -14 -6 0 8 -6 8 -23 0 -17 -8 -22 -17 -19 -34 3 -14 -1
-23 -8 -23 -7 0 -10 7 -7 15 4 8 2 17 -3 20 -5 3 -7 13 -4 23 2 9 -1 6 -8 -8
-7 -14 -21 -26 -32 -28 -11 -2 -15 1 -11 8 3 6 3 10 -2 9 -4 -1 -10 0 -13 1
-22 8 -41 6 -52 -8 -10 -12 -10 -14 0 -8 6 4 12 4 12 1 0 -3 -15 -12 -32 -20
-18 -8 -28 -14 -21 -15 14 0 6 -30 -8 -30 -4 0 -6 7 -3 15 4 8 1 15 -4 15 -6
0 -13 -8 -15 -17 -4 -14 -5 -12 -6 5 -1 27 -8 28 -35 5 -20 -17 -20 -17 -6 1
8 10 15 25 16 35 2 13 0 12 -12 -3 -12 -17 -59 -32 -49 -16 2 3 0 12 -6 20 -7
12 -9 12 -9 -3 0 -12 -4 -16 -12 -10 -7 4 -5 -6 6 -21 14 -23 15 -28 3 -23 -8
3 -20 0 -26 -6 -9 -9 -11 -8 -6 5 5 13 2 15 -14 11 -12 -3 -21 -1 -21 6 0 6
-8 11 -17 10 -11 0 -13 -3 -5 -6 15 -6 16 -33 1 -33 -5 0 -8 -3 -6 -7 3 -5 -6
-8 -19 -8 -28 0 -30 4 -8 20 14 10 15 15 5 31 -9 14 -11 15 -7 2 2 -9 -2 -19
-10 -22 -8 -3 -14 -1 -14 4 0 6 -9 5 -20 -2 -14 -9 -18 -20 -14 -38 l5 -25
-13 23 c-8 12 -17 20 -20 16 -4 -3 -12 -3 -19 1 -8 6 -5 12 11 20 l22 12 -21
6 c-11 3 -19 2 -16 -3 3 -4 -2 -11 -11 -14 -9 -4 -14 -13 -10 -22 3 -8 2 -13
-2 -10 -5 3 -21 -2 -37 -10 -15 -8 -30 -12 -33 -9 -3 3 0 5 6 5 7 0 12 10 11
23 0 16 -2 18 -7 7 -7 -16 -39 -19 -60 -7 -6 5 -12 7 -13 5 0 -2 -2 -13 -3
-25 -2 -13 -6 -26 -11 -30 -4 -5 -6 -1 -3 8 4 9 2 22 -3 30 -7 11 -9 11 -9 -3
0 -10 -4 -18 -10 -18 -5 0 -10 4 -10 9 0 5 -11 11 -24 13 -20 4 -23 1 -21 -18
2 -21 -21 -42 -33 -29 -3 3 0 5 6 5 7 0 12 5 12 11 0 8 -5 8 -15 -1 -8 -7 -15
-20 -15 -29 0 -14 -2 -14 -10 -1 -7 11 -10 -2 -12 -45 -2 -80 -15 110 -17 249
0 55 -4 97 -7 93 -4 -3 -8 -226 -10 -494 -2 -268 -6 -522 -8 -563 -2 -41 -4
-127 -5 -190 -2 -119 -33 -645 -46 -785 -15 -159 -25 -365 -25 -541 0 -218 -8
-266 -55 -334 -54 -77 -205 -131 -475 -167 -19 -2 -96 -17 -170 -33 -74 -16
-198 -40 -275 -55 -77 -14 -196 -37 -265 -50 -310 -59 -517 -97 -660 -119
-164 -26 -247 -44 -725 -154 -491 -114 -625 -140 -955 -181 -259 -33 -501 -71
-655 -102 -106 -22 -341 -65 -730 -133 -77 -14 -180 -32 -230 -41 -119 -20
-271 -52 -370 -75 -160 -38 -529 -112 -650 -130 -80 -11 -305 -51 -545 -95
-301 -55 -779 -144 -835 -155 -27 -5 -124 -23 -215 -40 -91 -17 -235 -45 -320
-61 -85 -16 -168 -32 -185 -35 -16 -2 -113 -20 -215 -40 -102 -19 -234 -44
-295 -55 -262 -48 -583 -109 -625 -118 -25 -6 -157 -31 -295 -56 -137 -25
-293 -54 -345 -65 -52 -11 -196 -38 -320 -60 -124 -22 -256 -47 -295 -56 -38
-8 -194 -37 -345 -65 -151 -27 -306 -56 -345 -64 -195 -38 -296 -49 -445 -49
-121 0 -164 3 -197 16 -55 22 -55 15 -1 -13 126 -64 255 -85 430 -69 155 14
213 25 1308 234 503 96 940 179 970 185 154 28 898 170 1670 317 1127 215
1183 226 1460 274 129 23 415 77 635 120 786 156 1580 294 2030 355 264 35
377 55 656 119 243 56 717 149 1139 226 212 38 422 77 467 85 45 9 95 17 110
19 15 2 89 15 163 29 74 14 149 28 165 31 17 2 55 9 85 15 30 6 69 13 85 16
17 2 39 7 50 9 127 29 214 46 233 46 12 0 22 4 22 9 0 5 7 12 16 15 8 3 13 2
10 -2 -2 -4 7 -7 20 -7 13 0 24 3 24 8 0 4 9 7 21 7 13 0 18 4 13 13 -5 8 -2
7 9 -2 15 -12 24 -12 60 0 23 7 49 14 57 15 29 3 138 34 166 47 45 20 134 78
134 87 0 5 8 11 18 14 9 4 35 22 57 41 22 19 44 35 50 35 6 0 17 9 25 20 8 11
20 20 28 20 7 0 18 4 25 10 14 11 85 67 118 93 13 9 27 17 32 17 4 0 5 5 1 12
-5 8 -2 9 9 5 10 -3 17 -2 17 4 0 5 15 16 33 24 17 8 26 14 20 15 -7 0 -13 4
-13 10 0 5 7 7 15 4 8 -4 17 1 21 10 3 9 9 14 14 11 4 -2 17 7 28 20 12 14 29
25 37 25 8 0 15 4 15 10 0 5 7 7 15 4 10 -4 13 0 10 15 -2 12 0 19 5 16 5 -3
26 11 46 32 20 21 34 32 30 26 -4 -7 -3 -13 3 -13 5 0 13 9 16 20 5 15 12 19
26 15 15 -5 17 -3 12 11 -5 14 -2 16 15 12 16 -4 19 -2 15 10 -5 11 -3 13 7 7
10 -6 12 -4 7 9 -5 13 -3 17 7 13 10 -4 13 -1 10 8 -3 8 1 22 10 30 9 9 16 12
16 6 0 -6 7 -8 15 -5 8 4 15 13 15 21 0 8 6 13 13 10 6 -2 11 -12 9 -22 -2
-10 1 -14 7 -10 6 3 11 13 11 21 0 9 5 13 13 9 6 -4 3 1 -7 9 -16 13 -17 16
-4 16 22 0 58 34 59 56 0 11 3 14 5 7 4 -9 11 -9 30 -1 21 10 36 32 17 26 -7
-3 -13 5 -13 17 0 3 11 -2 24 -10 24 -16 24 -15 22 9 -2 14 0 24 3 23 3 -1 16
4 27 11 12 6 25 8 29 4 4 -4 4 3 1 16 -8 24 -4 27 24 12 13 -7 21 -5 31 8 13
15 12 16 -3 3 -12 -9 -18 -10 -18 -2 0 6 9 16 20 23 11 7 20 19 20 26 0 7 4
11 10 7 5 -3 7 -12 3 -20 -3 -8 -1 -15 4 -15 5 0 10 7 11 15 1 8 3 22 4 30 1
8 5 12 10 9 4 -3 11 2 14 10 3 9 12 16 20 16 8 0 13 3 13 8 -3 20 2 32 16 32
9 0 12 -6 9 -15 -8 -20 1 -19 21 1 11 12 13 19 6 24 -8 4 -4 13 9 25 18 16 20
17 14 2 -3 -9 -2 -17 3 -17 12 0 33 37 29 52 -1 7 -1 10 1 6 3 -5 11 -8 18 -8
7 0 16 -6 18 -12 3 -8 6 -6 6 5 1 9 -3 17 -9 17 -5 0 -10 5 -10 11 0 5 5 7 10
4 6 -3 10 3 10 14 0 12 5 21 11 21 6 0 9 -7 5 -15 -3 -8 -1 -15 4 -15 6 0 10
5 10 11 0 5 5 7 12 3 6 -4 9 -3 5 2 -3 5 1 20 10 34 13 24 14 24 10 3 -6 -25
10 -32 19 -8 4 8 11 12 18 8 6 -4 5 1 -3 10 -11 14 -11 17 0 17 11 0 11 3 -1
11 -13 9 -13 10 0 6 8 -2 15 -9 15 -14 0 -6 4 -15 9 -20 5 -4 6 -3 3 3 -4 7 3
23 14 38 11 14 18 30 14 36 -3 5 0 7 9 4 8 -3 12 -13 9 -22 -4 -13 -3 -14 5
-3 5 7 16 18 23 23 11 8 10 9 -3 5 -17 -6 -28 10 -21 31 3 6 9 12 14 12 4 0 6
-8 2 -17 -3 -10 -3 -15 2 -11 4 4 13 3 20 -2 8 -7 12 -5 12 5 0 8 -4 12 -9 9
-21 -13 -5 16 17 30 23 15 30 13 26 -7 -1 -5 3 -6 8 -3 5 4 8 15 6 26 -2 11 1
19 8 17 7 -1 11 5 11 14 -1 12 5 15 20 12 18 -4 19 -3 6 7 -12 10 -11 11 8 7
20 -5 23 -2 19 14 -3 10 -1 17 4 13 5 -3 9 -12 9 -20 0 -8 5 -14 10 -14 6 0
10 14 10 30 0 23 5 30 19 30 10 0 22 7 25 16 9 23 8 24 -11 17 -10 -3 -15 -3
-11 2 4 4 2 15 -4 24 -10 13 -10 14 2 4 19 -18 41 -16 34 2 -4 8 -2 15 4 15 5
0 8 -17 6 -37 -2 -21 -1 -31 3 -23 9 21 36 40 50 35 17 -6 24 22 7 29 -8 3
-14 11 -14 18 0 11 2 11 8 0 5 -7 16 -10 25 -6 12 4 14 11 6 31 -12 33 -12 33
10 33 11 0 23 5 26 10 3 6 12 10 18 10 7 0 6 -4 -3 -10 -11 -7 -11 -10 -2 -10
7 0 10 -5 6 -12 -4 -7 -3 -8 4 -4 7 4 12 16 12 26 0 22 55 64 71 54 8 -4 9 -3
5 4 -10 16 6 15 24 0 12 -11 12 -10 0 5 -9 13 -22 17 -39 13 -14 -3 -20 -3
-13 0 6 3 10 9 8 13 -3 4 13 6 34 5 37 -2 39 -1 29 18 -8 15 -8 18 0 14 6 -4
18 2 27 12 9 11 26 18 40 16 16 -1 28 5 35 17 5 11 14 17 18 15 4 -3 6 6 3 20
-3 17 0 24 8 22 7 -2 15 3 18 11 2 8 0 11 -5 8 -17 -11 -10 23 9 40 22 20 24
11 2 -11 -8 -9 -11 -16 -5 -16 6 0 11 -8 11 -17 1 -15 4 -14 21 7 12 14 30 25
42 25 11 0 22 5 24 12 3 7 -3 9 -16 6 -23 -6 -26 3 -11 27 6 10 10 11 10 3 0
-7 4 -13 9 -13 13 0 24 34 12 38 -6 2 -11 11 -11 20 0 15 2 15 10 2 6 -9 10
-11 10 -3 0 7 7 10 15 7 13 -5 15 8 15 82 0 49 3 294 7 545 l6 456 -24 7 c-23
7 -23 8 -4 16 18 8 17 9 -8 9 -24 1 -27 4 -22 21 8 25 6 24 -25 -7z m20 -27
c0 -8 -4 -18 -10 -21 -5 -3 -10 3 -10 14 0 12 5 21 10 21 6 0 10 -6 10 -14z
m-355 -36 c3 -5 -1 -10 -9 -10 -9 0 -16 -6 -16 -14 0 -16 -32 -27 -49 -17 -8
5 -5 13 9 26 18 16 20 17 14 2 -3 -9 -1 -17 4 -17 6 0 14 9 17 20 7 22 20 26
30 10z m-258 -62 c-3 -8 -6 -5 -6 6 -1 11 2 17 5 13 3 -3 4 -12 1 -19z m-277
-48 c0 -18 -22 -22 -37 -7 -21 21 -8 40 18 27 10 -6 19 -15 19 -20z m87 -2
c-3 -8 -6 -5 -6 6 -1 11 2 17 5 13 3 -3 4 -12 1 -19z m-311 -48 c9 0 12 -4 9
-10 -4 -6 -13 -5 -25 2 -10 7 -16 17 -13 22 4 6 8 5 11 -2 2 -7 10 -12 18 -12z
m-328 -54 c12 -3 12 -4 -3 -3 -11 1 -20 9 -21 17 0 8 1 10 3 3 2 -6 12 -14 21
-17z m-865 -133 c5 -26 4 -26 -9 -9 -7 10 -11 23 -8 27 8 14 11 11 17 -18z
m117 17 c0 -5 -8 -10 -17 -10 -15 0 -16 2 -3 10 19 12 20 12 20 0z m-223 -842
c-1 -51 -3 -10 -3 92 0 102 2 143 3 93 2 -51 2 -135 0 -185z m2353 62 c0 -5
-5 -10 -11 -10 -5 0 -7 5 -4 10 3 6 8 10 11 10 2 0 4 -4 4 -10z m-95 -148
c-26 -22 -30 -23 -33 -8 -5 22 0 27 27 29 11 1 21 6 21 11 0 5 3 6 8 2 4 -4
-6 -19 -23 -34z m-2268 -239 c-2 -27 -3 -5 -3 47 0 52 1 74 3 48 2 -27 2 -69
0 -95z m2090 121 c0 -9 -5 -10 -19 -3 -10 5 -18 12 -18 14 0 2 8 3 18 2 10 0
19 -7 19 -13z m-2100 -321 c-2 -21 -4 -6 -4 32 0 39 2 55 4 38 2 -18 2 -50 0
-70z m-10 -170 c-2 -21 -4 -6 -4 32 0 39 2 55 4 38 2 -18 2 -50 0 -70z m1618
47 c3 -6 -1 -7 -9 -4 -18 7 -21 14 -7 14 6 0 13 -4 16 -10z m-1628 -202 c-2
-18 -4 -4 -4 32 0 36 2 50 4 33 2 -18 2 -48 0 -65z m-10 -160 c-2 -18 -4 -4
-4 32 0 36 2 50 4 33 2 -18 2 -48 0 -65z m-10 -175 c-2 -21 -4 -6 -4 32 0 39
2 55 4 38 2 -18 2 -50 0 -70z m-10 -325 c-1 -46 -3 -9 -3 82 0 91 2 128 3 83
2 -46 2 -120 0 -165z m-10 -175 c-2 -16 -4 -5 -4 22 0 28 2 40 4 28 2 -13 2
-35 0 -50z m-10 -65 c-3 -8 -6 -5 -6 6 -1 11 2 17 5 13 3 -3 4 -12 1 -19z
m-105 -185 c-6 -2 -9 -10 -6 -15 4 -7 2 -8 -5 -4 -13 9 -5 26 12 25 9 0 8 -2
-1 -6z"/>
<path d="M21143 12805 c0 -8 4 -12 9 -9 5 3 6 10 3 15 -9 13 -12 11 -12 -6z"/>
<path d="M20788 12763 c7 -3 16 -2 19 1 4 3 -2 6 -13 5 -11 0 -14 -3 -6 -6z"/>
<path d="M20709 12738 c14 -19 32 -15 30 5 0 8 -2 8 -6 -1 -4 -10 -8 -10 -21
0 -15 12 -16 11 -3 -4z"/>
<path d="M20495 12690 c-3 -5 -1 -10 4 -10 6 0 11 5 11 10 0 6 -2 10 -4 10 -3
0 -8 -4 -11 -10z"/>
<path d="M19485 12550 c-10 -17 14 -38 35 -33 22 6 27 28 8 39 -6 4 -8 3 -5
-3 4 -6 0 -16 -8 -23 -15 -12 -20 -4 -16 23 2 10 -7 9 -14 -3z"/>
<path d="M19026 12474 c-5 -14 -4 -15 9 -4 17 14 19 20 6 20 -5 0 -12 -7 -15
-16z"/>
<path d="M36444 12262 c4 -7 3 -12 -2 -12 -23 0 -27 -57 -37 -455 -13 -555
-35 -887 -80 -1262 -35 -281 -44 -466 -34 -688 9 -202 1 -332 -27 -425 -16
-56 -56 -134 -74 -145 -6 -3 0 11 12 32 l23 38 -37 -37 c-45 -44 -137 -99
-233 -139 -69 -29 -364 -122 -470 -149 -27 -7 -111 -30 -185 -51 -74 -21 -146
-40 -160 -43 -24 -4 -244 -62 -410 -107 -141 -39 -185 -49 -300 -74 -178 -38
-260 -70 -314 -122 -26 -24 -44 -48 -41 -52 2 -5 -24 -56 -59 -114 -48 -80
-66 -120 -71 -159 -13 -101 -54 -275 -84 -357 -44 -120 -143 -292 -159 -277
-3 3 1 14 9 23 8 10 -6 1 -30 -21 -55 -48 -161 -99 -271 -128 -72 -19 -110
-23 -245 -23 -88 0 -198 6 -245 13 -141 23 -248 41 -380 67 -174 34 -386 75
-445 85 -27 5 -124 23 -215 40 -91 18 -174 34 -185 36 -349 63 -414 75 -724
134 -261 49 -813 141 -1016 169 -435 60 -543 81 -905 171 -289 72 -489 115
-705 150 -71 11 -164 27 -205 35 -41 8 -124 23 -185 34 -60 11 -230 43 -377
71 -147 28 -374 68 -505 90 -300 51 -377 65 -813 150 -195 38 -492 95 -660
126 -168 30 -350 64 -405 74 -55 10 -260 48 -455 84 -511 94 -749 138 -1060
196 -151 28 -567 105 -925 170 -1034 189 -1062 195 -1195 249 l-55 22 44 -38
c24 -21 50 -41 57 -45 27 -17 259 -78 404 -107 126 -25 3158 -581 3460 -635
242 -43 580 -107 925 -175 403 -80 575 -112 720 -134 17 -3 73 -12 125 -22 52
-9 109 -18 125 -21 258 -42 1243 -232 1450 -279 55 -13 208 -48 340 -78 294
-68 389 -86 720 -137 143 -22 310 -49 370 -60 61 -11 241 -43 400 -70 160 -27
495 -88 745 -135 1142 -215 1313 -247 1455 -271 195 -32 497 -51 597 -37 171
25 308 112 399 253 63 97 74 115 71 123 -1 4 5 15 13 23 8 9 13 19 10 24 -3 5
-1 10 3 12 12 4 62 139 56 149 -3 5 0 9 6 9 6 0 8 5 4 12 -5 8 -2 9 11 4 15
-5 16 -4 5 9 -10 12 -10 15 0 15 7 0 10 7 7 15 -4 8 -2 17 4 20 5 4 7 11 4 16
-4 5 -1 9 6 9 7 0 9 3 6 7 -4 3 -2 11 3 18 18 22 40 95 28 95 -7 0 -7 4 1 13
6 8 8 17 4 20 -3 4 1 7 10 7 9 0 18 12 22 33 4 17 10 37 13 42 7 11 8 18 10
57 2 21 6 26 19 21 12 -5 15 -2 10 10 -3 9 -2 19 4 23 6 3 8 12 5 19 -2 7 3
20 12 28 30 26 145 74 217 91 39 10 90 23 115 31 25 8 56 16 70 19 14 2 59 14
100 26 41 12 143 40 225 62 83 21 191 49 240 63 50 13 144 37 210 55 530 137
781 230 875 322 56 55 62 68 65 142 1 39 3 71 4 71 1 0 4 15 6 34 1 19 10 40
19 46 9 7 16 16 16 20 0 4 -7 2 -15 -5 -11 -9 -15 -9 -15 -1 0 6 7 14 15 17 8
4 15 12 15 20 0 8 5 14 11 14 5 0 7 5 4 10 -3 6 -1 10 4 10 6 0 11 8 11 19 0
22 23 44 34 33 5 -4 7 0 6 8 -6 40 1 69 18 73 16 4 16 5 0 6 -27 2 -26 4 27
64 14 15 25 30 25 33 0 8 -9 4 -24 -12 -9 -8 -16 -11 -16 -5 0 6 9 20 21 32
14 14 18 24 11 31 -7 7 -2 18 16 35 15 14 22 22 17 19 -6 -2 -17 -1 -25 5 -13
7 -12 9 3 9 9 0 17 6 17 14 0 8 6 16 13 19 7 3 2 9 -12 14 -24 10 -24 10 10
17 23 5 29 10 19 14 -16 7 -24 42 -10 42 5 0 11 -8 14 -17 3 -10 3 -4 0 12 -8
46 -6 67 7 79 9 8 10 7 4 -4 -5 -8 -4 -12 0 -7 14 12 17 49 3 41 -8 -5 -9 -2
-5 11 4 9 2 25 -5 34 -10 13 -10 14 1 4 11 -9 18 -7 35 8 18 17 19 21 6 29 -9
6 -16 6 -18 0 -4 -11 -22 -3 -22 10 0 14 33 21 41 8 4 -7 11 -9 15 -5 4 4 -1
14 -12 22 -13 10 -14 14 -5 15 10 0 10 5 -3 25 -15 23 -10 35 8 18 3 -4 17 -8
29 -10 19 -2 20 -2 5 8 -22 13 -23 29 -2 29 10 0 14 6 11 14 -3 7 0 19 6 25 6
6 7 14 2 18 -4 5 -10 3 -12 -4 -5 -13 -33 -6 -33 9 0 5 5 6 11 3 6 -4 13 2 16
14 3 11 9 18 14 15 5 -3 6 2 3 11 -4 10 -2 14 7 10 9 -3 14 3 15 20 1 15 -2
22 -8 19 -6 -4 -9 -1 -6 7 3 8 17 13 31 13 24 -1 27 2 25 30 -1 17 -6 37 -12
45 -8 11 -8 13 1 8 6 -4 14 -3 17 2 4 5 1 13 -5 17 -9 5 -6 11 7 21 19 14 19
14 0 11 -10 -2 -21 3 -23 10 -3 6 0 12 6 12 6 0 11 5 11 11 0 11 24 39 34 39
2 0 1 -14 -4 -30 -5 -19 -5 -28 1 -25 5 4 9 13 9 21 0 8 5 14 11 14 5 0 8 4 5
8 -2 4 -1 14 4 21 5 9 0 21 -15 36 l-24 21 28 17 c16 9 32 13 36 9 5 -4 5 -2
2 4 -4 6 -23 10 -43 8 -26 -2 -33 1 -26 8 6 6 22 11 35 11 17 0 24 4 20 13 -3
8 -9 12 -13 9 -4 -3 -13 1 -19 9 -9 11 -8 14 6 12 10 0 22 9 28 22 7 17 16 21
33 17 12 -3 22 -2 22 3 0 5 -6 9 -12 9 -7 0 -21 4 -30 8 -14 5 -18 2 -18 -14
0 -12 -5 -21 -11 -21 -5 0 -7 5 -4 10 3 6 1 10 -4 10 -6 0 -11 -5 -11 -12 0
-6 -3 -8 -6 -5 -4 4 -2 13 4 20 7 8 9 16 7 19 -3 3 13 4 35 3 22 -1 40 0 40 2
0 2 -12 15 -26 28 -15 14 -22 25 -16 25 6 0 9 6 6 14 -7 17 12 31 21 16 4 -6
1 -17 -5 -25 -10 -12 -9 -15 2 -15 8 0 23 10 34 22 19 22 19 22 0 8 -18 -14
-19 -13 -12 13 5 22 3 27 -11 28 -14 0 -13 2 5 9 31 13 28 24 -5 15 -26 -6
-27 -5 -9 8 11 8 32 13 47 12 25 -2 27 0 18 16 -5 11 -20 19 -32 18 -21 0 -21
-1 -2 -9 17 -7 17 -9 3 -9 -19 -1 -38 27 -38 56 0 15 2 15 9 3 6 -8 8 -17 5
-21 -2 -4 5 -5 17 -2 15 4 17 8 8 13 -9 6 -4 16 17 35 16 15 23 24 17 20 -7
-3 -13 -1 -13 4 0 6 7 11 15 11 8 0 15 4 15 8 0 10 -42 8 -59 -2 -10 -7 -11
-4 -2 12 6 12 16 24 23 28 6 4 8 3 4 -4 -3 -6 -2 -13 3 -16 16 -10 23 12 10
35 -8 16 -13 18 -19 9 -5 -9 -9 -9 -14 -1 -6 10 6 15 27 12 4 0 7 4 7 9 0 6
-5 10 -10 10 -6 0 -3 11 6 25 15 24 15 25 -7 33 -20 8 -21 9 -4 16 11 4 21 2
26 -5 4 -7 12 -8 20 -4 9 6 10 3 5 -11 -6 -16 -5 -17 6 -6 11 11 9 17 -12 34
-17 15 -19 19 -7 15 15 -6 17 -3 12 13 -7 21 10 28 18 8 4 -10 6 -10 6 0 1 7
-6 15 -15 19 -13 5 -13 7 -2 14 10 7 9 9 -4 9 -10 0 -18 5 -18 11 0 5 5 7 10
4 6 -3 10 1 10 9 0 14 -11 20 -32 18 -3 -1 -9 5 -12 14 -4 9 -2 12 5 8 6 -3
28 2 50 11 34 16 37 19 22 30 -11 8 -13 14 -5 19 7 4 12 13 12 19 0 7 -4 6
-10 -3 -7 -11 -14 -12 -27 -4 -9 6 -18 15 -20 21 -5 14 29 27 36 14 4 -6 12
-6 21 -1 8 6 11 10 5 10 -5 0 -3 5 5 10 13 8 13 10 -2 10 -9 0 -19 -6 -21 -12
-3 -7 -6 -3 -6 10 -1 12 -6 22 -12 22 -8 0 -8 5 1 15 13 16 6 50 -8 41 -5 -3
-9 1 -9 9 0 8 5 15 10 15 5 0 6 7 3 16 -3 8 -2 12 4 9 6 -3 10 -2 10 4 0 5 -6
12 -12 14 -7 3 -3 6 9 6 27 1 59 51 33 51 -5 0 -10 -10 -11 -22 0 -13 -3 -17
-6 -10 -2 6 -9 10 -14 6 -9 -5 -13 16 -11 71 0 25 -1 27 -10 11 -5 -10 -8 -26
-5 -37 3 -10 1 -19 -4 -19 -5 0 -10 8 -10 18 -1 9 -2 22 -4 27 -1 6 -3 14 -3
18 -1 5 -10 1 -19 -9 -16 -15 -17 -15 -24 2 -4 11 -1 26 8 36 10 11 11 18 4
23 -6 3 -11 -1 -11 -11 0 -13 -3 -14 -15 -4 -8 7 -12 16 -9 21 3 5 0 9 -5 9
-6 0 -11 -6 -11 -12 0 -10 -3 -9 -9 1 -5 8 -16 11 -29 7 -21 -7 -62 11 -62 27
0 4 5 5 10 2 6 -3 10 1 10 10 0 12 -6 15 -20 10 -14 -5 -20 -2 -20 9 0 19 -11
21 -28 4 -9 -9 -12 -8 -12 5 0 9 -7 17 -15 17 -17 0 -20 16 -5 25 16 10 12 25
-5 19 -8 -4 -13 -9 -11 -13 2 -3 -5 -15 -15 -25 -11 -11 -19 -15 -19 -10 0 6
5 15 10 20 7 7 3 14 -15 22 -19 9 -25 9 -25 -1 0 -8 -3 -9 -8 -1 -4 6 -14 14
-22 17 -12 4 -11 6 3 6 9 1 17 8 17 16 0 20 -9 19 -34 -2 -20 -17 -20 -17 -7
0 12 15 12 17 -2 11 -10 -3 -17 1 -20 13 -3 11 -3 10 -2 -4 1 -12 -5 -25 -13
-28 -11 -4 -13 1 -8 29 4 22 2 37 -5 42 -8 4 -9 3 -5 -4z m47 -105 c-10 -9
-11 -8 -5 6 3 10 9 15 12 12 3 -3 0 -11 -7 -18z m139 -41 c0 -2 -7 -6 -15 -10
-8 -3 -15 -1 -15 4 0 6 7 10 15 10 8 0 15 -2 15 -4z m37 -71 c0 -8 -4 -12 -9
-9 -5 3 -6 10 -3 15 9 13 12 11 12 -6z m137 -40 c17 -25 16 -25 -4 -13 -11 7
-20 18 -20 25 0 19 6 16 24 -12z m40 -70 c-4 -8 -10 -15 -15 -15 -4 0 -6 7 -3
15 4 8 10 15 15 15 4 0 6 -7 3 -15z m76 -36 c0 -14 -29 -17 -34 -4 -3 9 2 13
15 12 10 -1 19 -4 19 -8z m-15 -178 c3 -5 1 -12 -5 -16 -5 -3 -10 1 -10 9 0
18 6 21 15 7z m-28 -42 c-11 -7 -23 -7 -28 -2 -5 5 3 9 19 11 24 1 25 0 9 -9z
m23 -65 c0 -8 -4 -14 -9 -14 -12 0 -32 26 -25 33 10 9 34 -4 34 -19z m40 -4
c-19 -13 -30 -13 -30 0 0 6 10 10 23 10 18 0 19 -2 7 -10z m-70 -80 c0 -5 -2
-10 -4 -10 -3 0 -8 5 -11 10 -3 6 -1 10 4 10 6 0 11 -4 11 -10z m30 -28 c0 -4
-9 -8 -19 -8 -11 0 -17 4 -15 8 3 4 12 8 20 8 8 0 14 -4 14 -8z m-115 -32 c3
-5 1 -10 -4 -10 -6 0 -11 5 -11 10 0 6 2 10 4 10 3 0 8 -4 11 -10z m55 2 c0
-4 -10 -9 -22 -9 -18 -2 -20 0 -8 7 18 12 30 13 30 2z m33 -14 c-19 -21 -41
-25 -24 -5 6 8 8 17 5 20 -4 3 3 5 15 4 19 -1 19 -2 4 -19z m-58 -138 c-3 -5
-12 -10 -18 -10 -7 0 -6 4 3 10 19 12 23 12 15 0z m-15 -145 c0 -2 -10 -10
-22 -16 -21 -11 -22 -11 -9 4 13 16 31 23 31 12z m-33 -180 c0 -8 -4 -12 -9
-9 -4 3 -8 9 -8 15 0 5 4 9 8 9 5 0 9 -7 9 -15z m-12 -245 c-3 -6 -12 -10 -20
-10 -7 0 -15 -6 -18 -12 -3 -7 -5 -4 -4 7 1 14 8 22 25 23 13 1 20 -2 17 -8z
m-65 -195 c0 -8 -4 -15 -10 -15 -5 0 -7 7 -4 15 4 8 8 15 10 15 2 0 4 -7 4
-15z m-49 -28 c-10 -9 -11 -8 -5 6 3 10 9 15 12 12 3 -3 0 -11 -7 -18z m-21
-85 c0 -15 -2 -15 -10 -2 -13 20 -13 33 0 25 6 -3 10 -14 10 -23z m-2560
-2242 c0 -5 -5 -10 -11 -10 -5 0 -7 5 -4 10 3 6 8 10 11 10 2 0 4 -4 4 -10z"/>
<path d="M36573 12238 c-12 -16 -2 -61 15 -64 7 -1 8 0 2 3 -5 2 -10 9 -10 14
0 6 8 5 20 -1 17 -9 20 -8 20 12 0 17 -3 19 -9 9 -12 -19 -34 -3 -28 20 6 22
3 24 -10 7z"/>
<path d="M36670 12140 c-9 -6 -10 -10 -3 -10 6 0 15 5 18 10 8 12 4 12 -15 0z"/>
<path d="M36727 12126 c-4 -10 -1 -13 8 -9 8 3 12 9 9 14 -7 12 -11 11 -17 -5z"/>
<path d="M36740 12100 c0 -5 5 -10 10 -10 6 0 10 5 10 10 0 6 -4 10 -10 10 -5
0 -10 -4 -10 -10z"/>
<path d="M36735 12071 c-3 -5 0 -13 6 -17 7 -4 9 -3 5 4 -3 5 0 13 6 15 9 4
10 6 1 6 -6 1 -14 -3 -18 -8z"/>
<path d="M36920 12020 c-9 -6 -10 -10 -3 -10 6 0 15 5 18 10 8 12 4 12 -15 0z"/>
<path d="M36973 11867 c-21 -9 -25 -15 -22 -33 0 -4 -5 -10 -12 -14 -9 -6 -7
-15 10 -35 16 -22 21 -24 21 -10 0 11 5 15 15 11 8 -3 15 0 15 5 0 6 -8 9 -17
7 -15 -4 -18 1 -17 26 1 24 5 31 22 31 25 0 38 11 20 17 -7 3 -23 1 -35 -5z"/>
<path d="M36990 11829 c0 -15 18 -19 23 -6 3 8 -1 14 -9 14 -8 0 -14 -4 -14
-8z"/>
<path d="M21255 11660 c3 -5 10 -10 16 -10 5 0 9 5 9 10 0 6 -7 10 -16 10 -8
0 -12 -4 -9 -10z"/>
<path d="M36995 11651 c-3 -6 -11 -9 -16 -6 -5 3 -6 -1 -3 -9 5 -14 8 -14 21
0 9 8 13 17 10 20 -3 3 -8 0 -12 -5z"/>
<path d="M36920 11571 c0 -6 4 -11 10 -11 5 0 7 -7 4 -15 -4 -8 -1 -15 6 -15
15 0 9 42 -7 48 -7 2 -13 -1 -13 -7z"/>
<path d="M21030 11436 c0 -2 7 -9 15 -16 13 -11 14 -10 9 4 -5 14 -24 23 -24
12z"/>
<path d="M36926 11384 c-4 -9 -4 -19 -1 -22 3 -3 5 0 5 7 0 7 4 9 10 6 6 -3 7
1 4 9 -8 20 -10 20 -18 0z"/>
<path d="M20906 11345 c-16 -12 -17 -15 -4 -15 9 0 18 7 22 15 7 18 6 18 -18
0z"/>
<path d="M20669 11108 c-5 -18 -6 -38 -1 -34 7 8 12 36 6 36 -2 0 -4 -1 -5 -2z"/>
<path d="M20555 11031 c-3 -5 -1 -12 5 -16 5 -3 10 1 10 9 0 18 -6 21 -15 7z"/>
<path d="M36692 10484 c10 -10 20 -16 22 -13 3 3 -5 11 -17 18 -21 13 -21 12
-5 -5z"/>
<path d="M19776 10377 c3 -10 9 -15 12 -12 3 3 0 11 -7 18 -10 9 -11 8 -5 -6z"/>
<path d="M36626 10287 c3 -10 9 -15 12 -12 3 3 0 11 -7 18 -10 9 -11 8 -5 -6z"/>
<path d="M36555 10080 c3 -5 8 -10 11 -10 2 0 4 5 4 10 0 6 -5 10 -11 10 -5 0
-7 -4 -4 -10z"/>
<path d="M4220 9118 c19 -21 127 -74 211 -103 106 -37 381 -114 674 -190 470
-121 703 -189 843 -244 74 -29 65 -16 -13 19 -178 80 -357 137 -795 251 -527
138 -785 214 -905 264 -11 4 -18 6 -15 3z"/>
</g>
</svg>
